<svg width="150" height="150" viewBox="0 0 150 150" fill="none" xmlns="http://www.w3.org/2000/svg">
<circle cx="75" cy="75" r="75" fill="#9F7AEA"/>
<path d="M1.23666 61.3636C0.424409 65.7856 0 70.3432 0 75C0 79.6568 0.424409 84.2144 1.23666 88.6364H148.763C149.576 84.2144 150 79.6568 150 75C150 70.3432 149.576 65.7856 148.763 61.3636H1.23666Z" fill="#1A202C"/>
<circle cx="45" cy="75" r="25" fill="#EDF2F7"/>
<path d="M70 79C70 92.8071 58.8071 100 45 100C31.1929 100 20 92.8071 20 79C20 79 30.1929 82 44 82C57.8071 82 70 79 70 79Z" fill="#805AD5"/>
<path d="M22.5 61.5C22.5 55.5 31.1929 50.0001 45 50.0001C58.8071 50.0001 69 55.5001 69 61.5001C69 61.5001 58.8071 59.5 45 59.5C31.1929 59.5 22.5 61.5 22.5 61.5Z" fill="#805AD5"/>
<path fill-rule="evenodd" clip-rule="evenodd" d="M45 105C61.5685 105 75 91.5685 75 75C75 58.4315 61.5685 45 45 45C28.4315 45 15 58.4315 15 75C15 91.5685 28.4315 105 45 105ZM45 100C58.8071 100 70 88.8071 70 75C70 61.1929 58.8071 50 45 50C31.1929 50 20 61.1929 20 75C20 88.8071 31.1929 100 45 100Z" fill="#4A5568"/>
<circle cx="57" cy="69" r="6" fill="#1A202C"/>
<circle cx="105" cy="75" r="25" fill="#EDF2F7"/>
<path d="M82.5 61.5C82.5 55.5 91.1929 50.0001 105 50.0001C118.807 50.0001 129 55.5001 129 61.5001C129 61.5001 118.807 56.5 105 56.5C91.1929 56.5 82.5 61.5 82.5 61.5Z" fill="#805AD5"/>
<path fill-rule="evenodd" clip-rule="evenodd" d="M105 105C121.569 105 135 91.5685 135 75C135 58.4315 121.569 45 105 45C88.4315 45 75 58.4315 75 75C75 91.5685 88.4315 105 105 105ZM105 100C118.807 100 130 88.8071 130 75C130 61.1929 118.807 50 105 50C91.1929 50 80 61.1929 80 75C80 88.8071 91.1929 100 105 100Z" fill="#4A5568"/>
<circle cx="116" cy="73" r="10" fill="#1A202C"/>
<path d="M37.1836 111.956C35.4518 107.232 31.3024 121.303 30 126C33.5394 125.51 38.0402 125.077 43.2713 124.723C41.4854 121.384 38.5652 115.726 37.1836 111.956Z" fill="#EDF2F7"/>
<path d="M56.4826 114.777C53.643 114.777 49.1787 120.761 46.6596 124.511C50.7471 124.275 55.2076 124.083 59.9474 123.945C59.8262 120.189 59.1831 114.777 56.4826 114.777Z" fill="#EDF2F7"/>
<path d="M64.7536 111.251C61.8644 111.251 60.6573 119.167 60.1921 123.938C64.4373 123.816 68.9044 123.737 73.5268 123.706C71.4166 118.915 67.5965 111.251 64.7536 111.251Z" fill="#EDF2F7"/>
<path d="M76.6636 123.693C77.0579 123.693 77.4531 123.692 77.8493 123.692C82.0133 123.692 86.072 123.732 89.9796 123.806C89.5051 119.023 88.2938 111.251 85.4311 111.251C82.5908 111.251 78.7751 118.901 76.6636 123.693Z" fill="#EDF2F7"/>
<path d="M93.7021 114.777C91.0335 114.777 90.3739 120.062 90.2417 123.811C94.8411 123.901 99.2288 124.04 103.329 124.221C100.78 120.461 96.4695 114.777 93.7021 114.777Z" fill="#EDF2F7"/>
<path d="M113.001 111.956C111.663 115.608 108.881 121.031 107.084 124.403C111.909 124.658 116.261 124.975 120 125.34C118.528 120.121 114.658 107.436 113.001 111.956Z" fill="#EDF2F7"/>
</svg>
