<svg width="24" height="24" viewBox="0 0 24 24" xmlns="http://www.w3.org/2000/svg">
<path d="M20 10.692L18.205 4L16.305 5.9C14.5783 4.81501 12.5343 4.34841 10.5078 4.57659C8.48126 4.80476 6.59224 5.7142 5.15 7.156L6.564 8.571C7.63002 7.50491 9.01162 6.81131 10.5034 6.59331C11.9952 6.3753 13.5175 6.64454 14.844 7.361L13.307 8.899L19.999 10.692H20ZM5.121 13.408L6.914 20.1L8.814 18.2C12.292 20.391 16.942 19.972 19.97 16.944L18.556 15.529C17.49 16.5951 16.1084 17.2887 14.6166 17.5067C13.1248 17.7247 11.6025 17.4555 10.276 16.739L11.813 15.201L5.121 13.408V13.408Z" class="fill-current"/>
</svg>
