<svg width="24" height="22" viewBox="0 0 24 22" fill="none" xmlns="http://www.w3.org/2000/svg">
<path fill-rule="evenodd" clip-rule="evenodd" d="M2 2.5C2 1.39543 2.89543 0.5 4 0.5H8C9.86384 0.5 11.4299 1.77477 11.874 3.5H21C22.6569 3.5 24 4.84315 24 6.5V18.5C24 20.1569 22.6569 21.5 21 21.5H3C1.34315 21.5 0 20.1569 0 18.5V6.5C0 5.19118 0.838141 4.07811 2.00698 3.66825C2.00236 3.61278 2 3.55666 2 3.5V2.5ZM2 6.5C2 5.94772 2.44772 5.5 3 5.5H21C21.5523 5.5 22 5.94772 22 6.5H4C3 6.5 3 7 3 7.5V19.5C2.44772 19.5 2 19.0523 2 18.5V6.5Z" fill="currentColor"/>
</svg>
